<svg width="350" height="150" viewBox="0 0 350 150" fill="none" xmlns="http://www.w3.org/2000/svg">
<path d="M57.7077 100.94H61.1523V111.2H63.2636V100.927H66.6466V98.9889H57.7694L57.7077 100.94ZM72.6964 111.2H74.7952V105.915H80.5117V111.2H82.6106V98.9889H80.5117V103.928H74.7952V98.9889H72.6964V111.2ZM89.821 111.2H96.8338V109.298H91.8952V105.841H96.3893V104.002H91.8952V100.89H96.7721V98.9889H89.7963L89.821 111.2ZM121.65 102.705C121.343 101.978 120.894 101.319 120.329 100.767C119.759 100.241 119.098 99.8222 118.379 99.5322C117.619 99.2179 116.805 99.0584 115.983 99.063H111.995V111.2H115.983C117.608 111.206 119.169 110.572 120.329 109.434C121.192 108.568 121.779 107.464 122.014 106.264C122.249 105.064 122.123 103.821 121.65 102.693V102.705ZM119.675 106.743C119.486 107.231 119.2 107.676 118.835 108.051C118.48 108.419 118.062 108.72 117.601 108.94C117.089 109.155 116.539 109.265 115.983 109.261H114.131V100.952H115.983C116.54 100.947 117.091 101.06 117.601 101.285C118.083 101.489 118.52 101.787 118.885 102.162C119.249 102.538 119.535 102.983 119.724 103.471C120.135 104.523 120.135 105.691 119.724 106.743H119.675ZM134.318 111.051C134.885 110.824 135.396 110.474 135.812 110.027C136.228 109.564 136.547 109.022 136.75 108.434C136.968 107.765 137.077 107.064 137.071 106.36V98.9519H134.972V106.261C135.014 107.074 134.775 107.876 134.293 108.533C134.034 108.802 133.723 109.016 133.38 109.162C133.036 109.308 132.666 109.383 132.293 109.383C131.92 109.383 131.55 109.308 131.206 109.162C130.863 109.016 130.552 108.802 130.293 108.533C129.807 107.878 129.563 107.075 129.601 106.261V98.9889H127.515V106.397C127.509 107.101 127.618 107.802 127.836 108.471C128.039 109.059 128.358 109.601 128.774 110.064C129.19 110.512 129.701 110.861 130.268 111.088C131.573 111.583 133.013 111.583 134.318 111.088V111.051ZM146.035 106.384H146.973L150.344 111.212H152.813L149.22 106.273C149.991 106.068 150.683 105.639 151.208 105.039C151.729 104.408 152.001 103.609 151.973 102.792C151.988 102.249 151.882 101.709 151.665 101.211C151.473 100.764 151.182 100.367 150.813 100.051C150.422 99.7201 149.969 99.4723 149.479 99.3223C148.932 99.1538 148.361 99.0705 147.788 99.0753H143.973V111.2H146.047L146.035 106.384ZM146.035 100.89H147.776C148.319 100.865 148.854 101.036 149.282 101.372C149.481 101.535 149.638 101.744 149.741 101.98C149.844 102.216 149.89 102.473 149.874 102.73C149.888 102.992 149.842 103.254 149.739 103.496C149.637 103.738 149.48 103.953 149.282 104.125C148.858 104.47 148.321 104.646 147.776 104.619H146.035V100.89ZM162.085 99.0013L157.147 111.212H159.295L160.53 108.125H165.468L166.703 111.212H168.9L163.962 99.0013H162.085ZM162.937 101.755L164.74 106.298H161.159L162.937 101.755ZM183.062 99.0013V107.952L176.58 99.0013H174.444V111.2H176.469V102.236L183.05 111.2H185.087V98.9889L183.062 99.0013ZM191.211 100.94H194.594V111.2H196.705V100.927H200.088V98.9889H191.211V100.94ZM225.781 101.903C225.543 101.428 225.235 100.991 224.867 100.606C224.502 100.224 224.086 99.8915 223.633 99.6186C223.16 99.3439 222.654 99.1321 222.126 98.9889C221.569 98.8486 220.997 98.7781 220.423 98.779C219.574 98.7686 218.733 98.9369 217.953 99.2729C216.804 99.7558 215.824 100.568 215.136 101.608C214.449 102.647 214.084 103.867 214.089 105.113C214.082 105.961 214.25 106.802 214.583 107.582C214.892 108.33 215.345 109.009 215.916 109.582C216.498 110.155 217.18 110.615 217.929 110.94C218.71 111.27 219.55 111.438 220.398 111.434C221.22 111.442 222.035 111.283 222.793 110.965C223.496 110.67 224.132 110.236 224.663 109.688C225.193 109.141 225.607 108.492 225.88 107.78C226.17 107.019 226.316 106.211 226.312 105.397V104.619H220.139V106.446H224.126C224.063 106.88 223.921 107.298 223.707 107.681C223.503 108.043 223.235 108.365 222.917 108.632C222.59 108.905 222.218 109.118 221.818 109.261C221.381 109.414 220.922 109.489 220.46 109.483C219.895 109.489 219.335 109.375 218.818 109.15C218.321 108.926 217.872 108.607 217.496 108.212C217.111 107.815 216.809 107.344 216.607 106.829C216.179 105.746 216.179 104.541 216.607 103.458C216.809 102.943 217.111 102.473 217.496 102.076C217.872 101.68 218.321 101.362 218.818 101.137C219.331 100.913 219.887 100.8 220.447 100.804C221.18 100.789 221.902 100.977 222.534 101.347C223.147 101.707 223.64 102.24 223.954 102.878L225.781 101.903ZM239.152 111.051C239.723 110.825 240.238 110.475 240.659 110.027C241.075 109.567 241.391 109.024 241.584 108.434C241.813 107.767 241.926 107.065 241.918 106.36V98.9519H239.819V106.261C239.858 107.075 239.613 107.878 239.128 108.533C238.869 108.801 238.56 109.015 238.217 109.161C237.875 109.307 237.506 109.382 237.134 109.382C236.761 109.382 236.393 109.307 236.05 109.161C235.707 109.015 235.398 108.801 235.14 108.533C234.654 107.878 234.409 107.075 234.448 106.261V98.9889H232.362V106.397C232.349 107.101 232.458 107.803 232.683 108.471C232.876 109.061 233.192 109.604 233.609 110.064C234.029 110.512 234.544 110.862 235.115 111.088C236.415 111.582 237.852 111.582 239.152 111.088V111.051ZM249.029 99.0013V111.2H251.116V98.9889L249.029 99.0013ZM258.512 99.0013V111.2H264.87V109.249H260.573V98.9889L258.512 99.0013ZM280.735 102.705C280.433 101.978 279.988 101.319 279.427 100.767C278.852 100.24 278.187 99.8221 277.464 99.5322C276.708 99.2195 275.898 99.0601 275.081 99.063H271.043V111.2H275.044C275.861 111.203 276.671 111.043 277.426 110.73C278.152 110.445 278.818 110.026 279.39 109.496C279.951 108.943 280.396 108.284 280.698 107.557C281.019 106.797 281.184 105.981 281.184 105.156C281.184 104.331 281.019 103.515 280.698 102.755L280.735 102.705ZM278.772 106.743C278.376 107.727 277.609 108.516 276.636 108.94C276.129 109.155 275.583 109.265 275.031 109.261H273.179V100.952H275.031C275.584 100.947 276.131 101.06 276.636 101.285C277.101 101.494 277.521 101.792 277.871 102.162C278.233 102.542 278.521 102.986 278.723 103.471C279.118 104.526 279.118 105.688 278.723 106.743H278.772ZM49.4725 53.2944C47.7193 53.2944 44.6821 58.233 44.6821 59.8381C44.6821 60.9863 46.4353 61.653 47.2872 61.4802C47.5063 60.0376 48.2384 58.7225 49.3491 57.7762C50.2627 58.196 51.5961 60.3813 51.5961 63.6532C51.5961 66.3817 50.6825 68.9375 47.2872 68.9375C43.8919 68.9375 36.805 66.2089 36.805 63.7766C36.805 61.653 42.2004 58.5047 42.2004 53.2327C42.2004 48.2941 37.2618 44.9852 32.6195 44.9852C28.9156 44.9852 26.4463 46.9236 25.7055 49.714C24.9647 52.5043 26.4956 54.6526 26.4956 57.838C26.4956 62.258 23.3349 64.6903 18.9766 64.6903C12.3589 64.6903 3.27182 59.1097 3.27182 52.2573C3.27182 48.3188 6.29671 44.0716 8.35858 44.0716C11.3341 44.0716 9.69204 52.9858 15.0257 52.9858C21.8163 52.9858 28.7798 38.8119 31.496 32.7498C33.7923 29.8958 35.6981 26.7486 37.1631 23.3912C35.6444 22.7862 33.1628 22.8479 32.3109 23.8233C30.8806 26.3082 29.6184 28.8862 28.5328 31.5399C26.0635 33.8734 22.6806 36.3056 20.1248 36.3056C19.7734 36.3413 19.4183 36.3047 19.0815 36.1982C18.7447 36.0917 18.4332 35.9175 18.1661 35.6862C17.899 35.455 17.682 35.1716 17.5284 34.8535C17.3748 34.5354 17.2878 34.1893 17.2728 33.8363C17.2728 31.8362 19.1495 28.7372 21.1496 26.9222C20.8001 26.4793 20.3155 26.1626 19.7696 26.02C19.2237 25.8773 18.6462 25.9167 18.1247 26.1321C15.9066 28.4356 14.558 31.4384 14.3096 34.6265C14.2765 35.3372 14.3859 36.0473 14.6314 36.715C14.8768 37.3827 15.2534 37.9946 15.7389 38.5146C16.2244 39.0346 16.809 39.4522 17.4583 39.7429C18.1077 40.0336 18.8086 40.1914 19.5199 40.2071C21.2731 40.2071 23.2238 39.2318 25.6931 37.4785C25.2363 38.3922 24.7795 39.2688 24.3227 40.0836C21.5324 45.0223 18.2605 48.9361 15.8283 48.9361C11.9514 48.9361 13.7047 38.6268 9.34633 38.6268C5.64237 38.6268 0 46.5038 0 54.0229C0 64.2088 10.8032 69.0609 17.5321 69.0609C25.2363 69.0609 29.5329 63.7272 29.5329 57.9491C29.5329 54.1216 28.4464 52.245 28.8044 50.6646C29.1131 49.3312 30.3848 48.7262 32.138 48.7262C35.3604 48.7262 38.694 50.6646 38.694 54.1216C38.694 58.8504 32.5207 60.1838 32.5207 64.8014C32.5207 69.8882 40.1632 73.2835 45.5587 73.2835C51.2504 73.2835 54.8926 69.4684 54.8926 63.5791C54.8926 57.6898 51.1146 53.2944 49.4725 53.2944ZM88.1542 65.2953C82.092 65.2953 74.3384 61.7765 74.3384 55.2946C74.3384 48.0101 81.9069 41.0961 88.9444 41.0961C93.1299 41.0961 95.2534 44.3185 95.2534 47.7138C95.2535 48.3881 95.1705 49.0599 95.0065 49.714C92.0804 52.4549 88.9938 55.5909 88.5246 56.5663C88.3604 57.228 88.3565 57.9194 88.5133 58.5829C88.6701 59.2465 88.9829 59.863 89.4259 60.3813C91.4631 59.1467 95.7473 56.1341 97.3894 51.282C99.5377 49.3189 101.6 47.5163 102.772 46.6767C102.712 46.4152 102.6 46.1687 102.441 45.9522C102.283 45.7357 102.082 45.5538 101.851 45.4175C101.62 45.2812 101.364 45.1933 101.097 45.1593C100.831 45.1253 100.561 45.1459 100.303 45.2198C99.4788 45.733 98.7056 46.3242 97.9944 46.9853C97.8833 42.2319 95.1547 37.4662 89.7593 37.4662C82.4872 37.4662 71.0172 46.1952 71.0172 55.986C71.0172 64.11 78.9066 69.9252 87.0677 69.9252C91.426 69.9252 95.5498 68.2955 96.4634 66.3571C96.6354 65.9481 96.6872 65.4987 96.6129 65.0613C96.5385 64.624 96.3411 64.2169 96.0436 63.8877C93.5067 64.7785 90.8426 65.2538 88.1542 65.2953ZM60.9301 65.2335C59.9054 66.8139 58.8682 67.8386 58.8682 69.0609C58.8682 70.6907 60.6955 71.1722 61.7203 71.1722C62.1401 70.024 62.8685 68.7029 63.0537 68.0238C63.4241 66.7521 62.6339 65.8385 60.9301 65.2335ZM235.806 63.9989C234.251 64.9616 232.483 65.5256 230.658 65.641C229.806 65.641 229.423 65.394 229.423 64.7891C229.423 63.147 232.201 59.8504 232.201 57.9367C232.174 57.4614 232.028 57.0005 231.775 56.5969C231.523 56.1933 231.172 55.86 230.757 55.6279C229.165 55.6759 227.579 55.4289 226.077 54.8995C224.447 54.3562 223.472 53.6648 223.41 52.8376C222.966 52.7553 222.507 52.7844 222.076 52.9223C221.646 53.0602 221.256 53.3025 220.941 53.6278C217.175 59.6282 210.817 64.9125 204.261 65.0236C201.656 65.0854 199.717 64.1224 199.717 62.4803C199.962 61.0063 200.641 59.6391 201.668 58.554C201.989 58.233 202.31 57.912 202.631 57.5663C202.323 56.7268 199.841 56.3317 198.927 57.0231C194.865 60.4801 190.803 63.9371 184.679 64.3075C181.827 64.4804 178.741 63.6902 178.741 61.6901C178.741 59.6899 181.408 57.0231 183.037 55.7514C182.442 55.327 181.74 55.0788 181.011 55.0351C180.282 54.9914 179.555 55.1541 178.914 55.5045C178.012 56.1712 175.345 59.6282 172.851 61.579C170.357 63.5297 165.443 66.2459 163.332 63.5174C162.632 63.9368 162.084 64.5692 161.768 65.3222C161.453 66.0753 161.387 66.9094 161.579 67.7028C161.897 68.2215 162.356 68.6387 162.903 68.9055C163.45 69.1723 164.061 69.2776 164.666 69.2091C167.135 69.2091 171.197 66.7398 174.086 64.2705C173.987 67.1719 176.691 69.2091 180.432 69.2091C183.704 69.2091 189.532 67.6535 195.544 63.6038C194.853 67.1226 197.31 69.703 201.964 69.703C209.372 69.703 217.953 62.295 221.472 58.2083C223.545 59.3046 225.834 59.9286 228.176 60.0356C227.04 62.1345 225.608 65.1101 225.608 67.0979C225.569 67.5746 225.636 68.054 225.803 68.502C225.971 68.9501 226.235 69.3558 226.576 69.6905C226.918 70.0251 227.329 70.2805 227.781 70.4384C228.232 70.5963 228.713 70.6529 229.189 70.6043C231.547 70.6043 237.313 69.1597 237.313 66.604C237.317 66.0698 237.18 65.5439 236.916 65.0798C236.651 64.6157 236.268 64.23 235.806 63.9618V63.9989ZM347.258 127.793C330.949 114.57 302.082 113.175 302.082 105.656C302.082 102.261 307.54 99.8902 315.478 96.3838C328.455 90.618 330.516 89.5932 330.516 87.0992C330.516 82.2594 317.442 73.4069 311.762 64.2334C303.897 68.1843 296.514 70.7277 292.687 70.7277C291.959 70.7812 291.228 70.6793 290.542 70.4287C289.857 70.1782 289.233 69.7848 288.711 69.2745C288.189 68.7643 287.781 68.149 287.515 67.4693C287.249 66.7897 287.131 66.0612 287.168 65.3323C287.192 64.3227 287.337 63.3196 287.6 62.3444C285.256 64.6329 283.105 67.1106 281.167 69.7523C279.772 69.5671 279.044 68.7153 279.044 67.9251C279.044 66.5917 282.069 64.2211 282.069 61.8629C282.094 61.6371 282.07 61.4086 281.998 61.1929C281.927 60.9772 281.81 60.7794 281.655 60.613C281.501 60.4466 281.312 60.3155 281.102 60.2287C280.892 60.1418 280.666 60.1012 280.439 60.1097C276.5 60.1097 264.611 70.2956 259.697 70.2956C258.791 70.3355 257.9 70.0628 257.171 69.5233C256.443 68.9838 255.922 68.2103 255.697 67.3324C253.373 68.9426 250.681 69.9406 247.869 70.2339C246.558 70.2125 245.305 69.6879 244.37 68.7687C243.434 67.8495 242.888 66.6059 242.844 65.2953C242.844 61.0481 249.758 55.6526 254.116 55.6526C255.068 55.6677 255.988 55.9965 256.734 56.5882C257.479 57.1798 258.009 58.0011 258.24 58.9245C258.453 58.4826 258.718 58.0681 259.03 57.6898C259.622 57.2313 260.36 57.0036 261.108 57.049C261.855 57.0945 262.56 57.4099 263.092 57.9367C261.347 59.5509 260.25 61.7454 260.005 64.11C260.005 65.3446 260.61 65.8632 261.697 65.8632C268.006 65.8632 278.007 55.8008 282.686 55.8008C284.871 55.8008 286.106 57.9738 286.044 60.1221C287.279 58.6775 288.909 57.0107 289.847 56.7144C290.438 56.652 291.036 56.7166 291.6 56.904C292.165 57.0914 292.682 57.3972 293.119 57.8009C291.61 59.3079 290.706 61.315 290.576 63.4433C290.576 65.32 291.551 66.2336 294.279 66.2336C298.588 66.2336 304.379 64.3816 310.33 61.5419C309.641 60.0234 309.268 58.3813 309.231 56.7144C309.231 45.4914 325.837 30.7867 334.813 30.7867C335.615 30.732 336.42 30.8496 337.173 31.1318C337.925 31.414 338.609 31.8541 339.178 32.4226C339.746 32.9911 340.186 33.6748 340.468 34.4276C340.751 35.1805 340.868 35.985 340.814 36.7871C340.814 45.1457 328.652 55.0106 316.219 61.9617C322.393 70.1351 335.974 79.9506 335.974 86.6547C335.974 90.05 334.023 92.47 324.862 96.532C315.219 100.717 307.824 103.384 307.824 104.607C307.824 107.459 338.381 109.879 348.333 118.484C350.95 120.719 350.407 123.805 347.258 127.756V127.793ZM249.721 65.8756C251.971 65.716 254.159 65.0626 256.129 63.9618C255.919 61.8259 255.314 59.9122 253.351 59.8134C250.993 59.6899 246.56 62.3568 246.56 64.1841C246.535 65.2953 248.363 65.8385 249.696 65.8385L249.721 65.8756ZM314.478 59.2825C326.084 52.8994 336.974 43.516 336.974 37.7378C336.974 35.9229 335.887 34.7747 333.517 34.7747C326.183 34.7747 313.207 46.3557 313.207 55.2081C313.282 56.6364 313.71 58.0236 314.454 59.2455L314.478 59.2825ZM101.797 66.5052C101.377 67.2954 99.7353 69.1721 99.6735 70.2709C99.6118 71.3698 100.834 72.2711 102.353 72.5056C103.019 70.4561 104.526 68.9375 103.748 67.8387C103.237 67.2186 102.56 66.7562 101.797 66.5052ZM158.986 58.8133C158.986 66.8756 151.825 70.5055 145.22 70.5055C141.034 70.5055 137.935 69.0609 137.935 66.2089C137.935 64.147 139.997 61.1098 139.997 59.5294C139.997 58.2948 138.973 57.5416 137.405 57.0601C133.293 62.2086 126.552 69.2091 122.663 69.2091C118.774 69.2091 115.563 62.3568 115.563 59.0232C115.563 53.9982 122.848 52.7265 129.33 52.7265C131.757 52.6995 134.182 52.9187 136.565 53.3809C137.531 52.1812 138.398 50.9054 139.158 49.5658C139.45 49.5716 139.737 49.6473 139.995 49.7863C140.252 49.9254 140.473 50.1239 140.638 50.3654C140.804 50.6069 140.909 50.8844 140.946 51.1748C140.983 51.4652 140.949 51.7601 140.849 52.0351C140.484 52.8131 140.037 53.5499 139.516 54.2328C141.75 55.1464 143.096 56.4428 143.22 58.1096C143.343 59.7764 142.183 62.3444 142.183 63.4433C142.183 65.2582 145.516 65.9126 147.825 65.9126C152.072 65.9126 156.134 62.9494 156.134 58.9368C156.134 53.4179 148.726 49.7263 142.059 46.936C133.417 43.2938 124.848 40.3923 124.848 34.0215C124.848 29.6508 129.083 26.379 134.059 26.379C139.034 26.379 146.553 29.3545 151.764 32.3177C150.615 34.6882 148.368 35.9599 146.615 35.6018C143.825 35.0463 138.429 30.083 133.034 30.083C129.577 30.083 127.688 32.1448 127.688 33.9598C127.688 37.5403 135.096 39.5404 143.393 43.3555C152.01 47.2817 158.986 51.0474 158.986 58.8133ZM134.12 56.344C132.529 56.1772 130.93 56.0989 129.33 56.1095C123.934 56.1095 118.477 56.7762 118.477 59.2702C118.477 60.8505 121.021 64.5421 123.416 64.5421C126.293 64.5668 130.688 60.369 134.12 56.3687V56.344Z" fill="#01131F"/>
</svg>
